# xmcd
#
# Track frame offsets:
#	150
#	21707
#	43742
#	66465
#	88492
#	120822
#	148817
#	171145
#	189970
#	210427
#
# Disc length: 3158 seconds
#
# Revision: 1
# Processed by: cddbd v1.5.1PL0 Copyright (c) Steve Scherf et al.
# Submitted via: audiograbber 1.82.02
#
DISCID=930c540a
DTITLE=Carl Sims - M&M Man
DYEAR=2001
DGENRE=Blues
TTITLE0=I'm gonna Tell My Wife (And My Woman Too)
TTITLE1=M&M Man
TTITLE2=I Ain't Hanging Around
TTITLE3=Double D
TTITLE4=Trapped
TTITLE5=Seventeen Days of Loving
TTITLE6=Tie Me Up
TTITLE7=Bucket of Blood
TTITLE8=I'm Sending You Back to Him
TTITLE9=Mr. Nobody is Somebody Now
EXTD=Waldoxy Records
EXTT0=
EXTT1=
EXTT2=
EXTT3=
EXTT4=
EXTT5=
EXTT6=
EXTT7=
EXTT8=
EXTT9=
PLAYORDER=
